<?xml version="1.0" encoding="utf-8" standalone="no"?>
<!DOCTYPE svg PUBLIC "-//W3C//DTD SVG 1.1//EN"
  "http://www.w3.org/Graphics/SVG/1.1/DTD/svg11.dtd">
<svg xmlns:xlink="http://www.w3.org/1999/xlink" width="236.16pt" height="236.16pt" viewBox="0 0 236.16 236.16" xmlns="http://www.w3.org/2000/svg" version="1.1">
 <metadata>
  <rdf:RDF xmlns:dc="http://purl.org/dc/elements/1.1/" xmlns:cc="http://creativecommons.org/ns#" xmlns:rdf="http://www.w3.org/1999/02/22-rdf-syntax-ns#">
   <cc:Work>
    <dc:type rdf:resource="http://purl.org/dc/dcmitype/StillImage"/>
    <dc:date>2026-03-22T14:36:14.409544</dc:date>
    <dc:format>image/svg+xml</dc:format>
    <dc:creator>
     <cc:Agent>
      <dc:title>Matplotlib v3.10.8, https://matplotlib.org/</dc:title>
     </cc:Agent>
    </dc:creator>
   </cc:Work>
  </rdf:RDF>
 </metadata>
 <defs>
  <style type="text/css">*{stroke-linejoin: round; stroke-linecap: butt}</style>
 </defs>
 <g id="figure_1">
  <g id="patch_1">
   <path d="M 0 236.16 
L 236.16 236.16 
L 236.16 0 
L 0 0 
z
" style="fill: #ffffff"/>
  </g>
  <g id="axes_1">
   <g id="patch_2">
    <path d="M 154.313703 95.589709 
C 154.233852 95.461061 154.153315 95.33284 154.072097 95.20505 
C 153.99088 95.077259 153.908982 94.949903 153.826408 94.822985 
" clip-path="url(#p90d0f037e3)" style="fill: none; stroke: #2e8b57; stroke-width: 1.2; stroke-linejoin: miter"/>
   </g>
   <g id="patch_3">
    <path d="M 130.948707 109.707475 
L 107.769565 130.38463 
L 102.653021 122.520421 
z
" clip-path="url(#p90d0f037e3)" style="fill: #696969; opacity: 0.7; stroke: #696969; stroke-linejoin: miter"/>
   </g>
   <g id="patch_4">
    <path d="M 119.758831 116.987734 
Q 130.607533 109.929446 140.235189 103.665585 
" style="fill: none; stroke: #4682b4; stroke-width: 1.8; stroke-linecap: round"/>
    <path d="M 139.3485 103.586314 
L 140.235189 103.665585 
L 139.948384 104.508344 
" style="fill: none; stroke: #4682b4; stroke-width: 1.8; stroke-linecap: round"/>
   </g>
   <g id="text_1">
    <g id="patch_5">
     <path d="M 136.71319 95.046582 
L 185.23819 95.046582 
Q 186.36319 95.046582 186.36319 93.921582 
L 186.36319 86.421582 
Q 186.36319 85.296582 185.23819 85.296582 
L 136.71319 85.296582 
Q 135.58819 85.296582 135.58819 86.421582 
L 135.58819 93.921582 
Q 135.58819 95.046582 136.71319 95.046582 
z
" style="fill: #ffffff; opacity: 0.85"/>
    </g>
    <!-- $F_{\rm sail,x}$  29.3 N -->
    <g style="fill: #4682b4" transform="translate(136.71319 92.046582) scale(0.075 -0.075)">
     <defs>
      <path id="DejaVuSans-Oblique-46" d="M 1081 4666 
L 3756 4666 
L 3653 4134 
L 1606 4134 
L 1338 2759 
L 3188 2759 
L 3084 2228 
L 1234 2228 
L 800 0 
L 172 0 
L 1081 4666 
z
" transform="scale(0.015625)"/>
      <path id="DejaVuSans-73" d="M 2834 3397 
L 2834 2853 
Q 2591 2978 2328 3040 
Q 2066 3103 1784 3103 
Q 1356 3103 1142 2972 
Q 928 2841 928 2578 
Q 928 2378 1081 2264 
Q 1234 2150 1697 2047 
L 1894 2003 
Q 2506 1872 2764 1633 
Q 3022 1394 3022 966 
Q 3022 478 2636 193 
Q 2250 -91 1575 -91 
Q 1294 -91 989 -36 
Q 684 19 347 128 
L 347 722 
Q 666 556 975 473 
Q 1284 391 1588 391 
Q 1994 391 2212 530 
Q 2431 669 2431 922 
Q 2431 1156 2273 1281 
Q 2116 1406 1581 1522 
L 1381 1569 
Q 847 1681 609 1914 
Q 372 2147 372 2553 
Q 372 3047 722 3315 
Q 1072 3584 1716 3584 
Q 2034 3584 2315 3537 
Q 2597 3491 2834 3397 
z
" transform="scale(0.015625)"/>
      <path id="DejaVuSans-61" d="M 2194 1759 
Q 1497 1759 1228 1600 
Q 959 1441 959 1056 
Q 959 750 1161 570 
Q 1363 391 1709 391 
Q 2188 391 2477 730 
Q 2766 1069 2766 1631 
L 2766 1759 
L 2194 1759 
z
M 3341 1997 
L 3341 0 
L 2766 0 
L 2766 531 
Q 2569 213 2275 61 
Q 1981 -91 1556 -91 
Q 1019 -91 701 211 
Q 384 513 384 1019 
Q 384 1609 779 1909 
Q 1175 2209 1959 2209 
L 2766 2209 
L 2766 2266 
Q 2766 2663 2505 2880 
Q 2244 3097 1772 3097 
Q 1472 3097 1187 3025 
Q 903 2953 641 2809 
L 641 3341 
Q 956 3463 1253 3523 
Q 1550 3584 1831 3584 
Q 2591 3584 2966 3190 
Q 3341 2797 3341 1997 
z
" transform="scale(0.015625)"/>
      <path id="DejaVuSans-69" d="M 603 3500 
L 1178 3500 
L 1178 0 
L 603 0 
L 603 3500 
z
M 603 4863 
L 1178 4863 
L 1178 4134 
L 603 4134 
L 603 4863 
z
" transform="scale(0.015625)"/>
      <path id="DejaVuSans-6c" d="M 603 4863 
L 1178 4863 
L 1178 0 
L 603 0 
L 603 4863 
z
" transform="scale(0.015625)"/>
      <path id="DejaVuSans-2c" d="M 750 794 
L 1409 794 
L 1409 256 
L 897 -744 
L 494 -744 
L 750 256 
L 750 794 
z
" transform="scale(0.015625)"/>
      <path id="DejaVuSans-78" d="M 3513 3500 
L 2247 1797 
L 3578 0 
L 2900 0 
L 1881 1375 
L 863 0 
L 184 0 
L 1544 1831 
L 300 3500 
L 978 3500 
L 1906 2253 
L 2834 3500 
L 3513 3500 
z
" transform="scale(0.015625)"/>
      <path id="DejaVuSans-20" transform="scale(0.015625)"/>
      <path id="DejaVuSans-32" d="M 1228 531 
L 3431 531 
L 3431 0 
L 469 0 
L 469 531 
Q 828 903 1448 1529 
Q 2069 2156 2228 2338 
Q 2531 2678 2651 2914 
Q 2772 3150 2772 3378 
Q 2772 3750 2511 3984 
Q 2250 4219 1831 4219 
Q 1534 4219 1204 4116 
Q 875 4013 500 3803 
L 500 4441 
Q 881 4594 1212 4672 
Q 1544 4750 1819 4750 
Q 2544 4750 2975 4387 
Q 3406 4025 3406 3419 
Q 3406 3131 3298 2873 
Q 3191 2616 2906 2266 
Q 2828 2175 2409 1742 
Q 1991 1309 1228 531 
z
" transform="scale(0.015625)"/>
      <path id="DejaVuSans-39" d="M 703 97 
L 703 672 
Q 941 559 1184 500 
Q 1428 441 1663 441 
Q 2288 441 2617 861 
Q 2947 1281 2994 2138 
Q 2813 1869 2534 1725 
Q 2256 1581 1919 1581 
Q 1219 1581 811 2004 
Q 403 2428 403 3163 
Q 403 3881 828 4315 
Q 1253 4750 1959 4750 
Q 2769 4750 3195 4129 
Q 3622 3509 3622 2328 
Q 3622 1225 3098 567 
Q 2575 -91 1691 -91 
Q 1453 -91 1209 -44 
Q 966 3 703 97 
z
M 1959 2075 
Q 2384 2075 2632 2365 
Q 2881 2656 2881 3163 
Q 2881 3666 2632 3958 
Q 2384 4250 1959 4250 
Q 1534 4250 1286 3958 
Q 1038 3666 1038 3163 
Q 1038 2656 1286 2365 
Q 1534 2075 1959 2075 
z
" transform="scale(0.015625)"/>
      <path id="DejaVuSans-2e" d="M 684 794 
L 1344 794 
L 1344 0 
L 684 0 
L 684 794 
z
" transform="scale(0.015625)"/>
      <path id="DejaVuSans-33" d="M 2597 2516 
Q 3050 2419 3304 2112 
Q 3559 1806 3559 1356 
Q 3559 666 3084 287 
Q 2609 -91 1734 -91 
Q 1441 -91 1130 -33 
Q 819 25 488 141 
L 488 750 
Q 750 597 1062 519 
Q 1375 441 1716 441 
Q 2309 441 2620 675 
Q 2931 909 2931 1356 
Q 2931 1769 2642 2001 
Q 2353 2234 1838 2234 
L 1294 2234 
L 1294 2753 
L 1863 2753 
Q 2328 2753 2575 2939 
Q 2822 3125 2822 3475 
Q 2822 3834 2567 4026 
Q 2313 4219 1838 4219 
Q 1578 4219 1281 4162 
Q 984 4106 628 3988 
L 628 4550 
Q 988 4650 1302 4700 
Q 1616 4750 1894 4750 
Q 2613 4750 3031 4423 
Q 3450 4097 3450 3541 
Q 3450 3153 3228 2886 
Q 3006 2619 2597 2516 
z
" transform="scale(0.015625)"/>
      <path id="DejaVuSans-4e" d="M 628 4666 
L 1478 4666 
L 3547 763 
L 3547 4666 
L 4159 4666 
L 4159 0 
L 3309 0 
L 1241 3903 
L 1241 0 
L 628 0 
L 628 4666 
z
" transform="scale(0.015625)"/>
     </defs>
     <use xlink:href="#DejaVuSans-Oblique-46" transform="translate(0 0.78125)"/>
     <use xlink:href="#DejaVuSans-73" transform="translate(57.519531 -15.625) scale(0.7)"/>
     <use xlink:href="#DejaVuSans-61" transform="translate(93.989258 -15.625) scale(0.7)"/>
     <use xlink:href="#DejaVuSans-69" transform="translate(136.884766 -15.625) scale(0.7)"/>
     <use xlink:href="#DejaVuSans-6c" transform="translate(156.333008 -15.625) scale(0.7)"/>
     <use xlink:href="#DejaVuSans-2c" transform="translate(175.78125 -15.625) scale(0.7)"/>
     <use xlink:href="#DejaVuSans-78" transform="translate(211.669922 -15.625) scale(0.7)"/>
     <use xlink:href="#DejaVuSans-20" transform="translate(255.830078 0.78125)"/>
     <use xlink:href="#DejaVuSans-20" transform="translate(287.617188 0.78125)"/>
     <use xlink:href="#DejaVuSans-32" transform="translate(319.404297 0.78125)"/>
     <use xlink:href="#DejaVuSans-39" transform="translate(381.277344 0.78125)"/>
     <use xlink:href="#DejaVuSans-2e" transform="translate(444.900391 0.78125)"/>
     <use xlink:href="#DejaVuSans-33" transform="translate(476.6875 0.78125)"/>
     <use xlink:href="#DejaVuSans-20" transform="translate(540.310547 0.78125)"/>
     <use xlink:href="#DejaVuSans-4e" transform="translate(572.097656 0.78125)"/>
    </g>
   </g>
   <g id="patch_6">
    <path d="M 119.169832 119.755089 
Q 137.614864 148.105402 155.265471 175.23467 
" style="fill: none; stroke: #9b59b6; stroke-width: 1.8; stroke-linecap: round"/>
    <path d="M 155.344742 174.347981 
L 155.265471 175.23467 
L 154.422711 174.947865 
" style="fill: none; stroke: #9b59b6; stroke-width: 1.8; stroke-linecap: round"/>
   </g>
   <g id="text_2">
    <g id="patch_7">
     <path d="M 140.44403 194.672816 
L 188.74403 194.672816 
Q 189.86903 194.672816 189.86903 193.547816 
L 189.86903 185.597816 
Q 189.86903 184.472816 188.74403 184.472816 
L 140.44403 184.472816 
Q 139.31903 184.472816 139.31903 185.597816 
L 139.31903 193.547816 
Q 139.31903 194.672816 140.44403 194.672816 
z
" style="fill: #ffffff; opacity: 0.85"/>
    </g>
    <!-- $F_{\rm sail,y}$  70.2 N -->
    <g style="fill: #9b59b6" transform="translate(140.44403 191.222816) scale(0.075 -0.075)">
     <defs>
      <path id="DejaVuSans-79" d="M 2059 -325 
Q 1816 -950 1584 -1140 
Q 1353 -1331 966 -1331 
L 506 -1331 
L 506 -850 
L 844 -850 
Q 1081 -850 1212 -737 
Q 1344 -625 1503 -206 
L 1606 56 
L 191 3500 
L 800 3500 
L 1894 763 
L 2988 3500 
L 3597 3500 
L 2059 -325 
z
" transform="scale(0.015625)"/>
      <path id="DejaVuSans-37" d="M 525 4666 
L 3525 4666 
L 3525 4397 
L 1831 0 
L 1172 0 
L 2766 4134 
L 525 4134 
L 525 4666 
z
" transform="scale(0.015625)"/>
      <path id="DejaVuSans-30" d="M 2034 4250 
Q 1547 4250 1301 3770 
Q 1056 3291 1056 2328 
Q 1056 1369 1301 889 
Q 1547 409 2034 409 
Q 2525 409 2770 889 
Q 3016 1369 3016 2328 
Q 3016 3291 2770 3770 
Q 2525 4250 2034 4250 
z
M 2034 4750 
Q 2819 4750 3233 4129 
Q 3647 3509 3647 2328 
Q 3647 1150 3233 529 
Q 2819 -91 2034 -91 
Q 1250 -91 836 529 
Q 422 1150 422 2328 
Q 422 3509 836 4129 
Q 1250 4750 2034 4750 
z
" transform="scale(0.015625)"/>
     </defs>
     <use xlink:href="#DejaVuSans-Oblique-46" transform="translate(0 0.78125)"/>
     <use xlink:href="#DejaVuSans-73" transform="translate(57.519531 -15.625) scale(0.7)"/>
     <use xlink:href="#DejaVuSans-61" transform="translate(93.989258 -15.625) scale(0.7)"/>
     <use xlink:href="#DejaVuSans-69" transform="translate(136.884766 -15.625) scale(0.7)"/>
     <use xlink:href="#DejaVuSans-6c" transform="translate(156.333008 -15.625) scale(0.7)"/>
     <use xlink:href="#DejaVuSans-2c" transform="translate(175.78125 -15.625) scale(0.7)"/>
     <use xlink:href="#DejaVuSans-79" transform="translate(211.669922 -15.625) scale(0.7)"/>
     <use xlink:href="#DejaVuSans-20" transform="translate(255.830078 0.78125)"/>
     <use xlink:href="#DejaVuSans-20" transform="translate(287.617188 0.78125)"/>
     <use xlink:href="#DejaVuSans-37" transform="translate(319.404297 0.78125)"/>
     <use xlink:href="#DejaVuSans-30" transform="translate(383.027344 0.78125)"/>
     <use xlink:href="#DejaVuSans-2e" transform="translate(446.650391 0.78125)"/>
     <use xlink:href="#DejaVuSans-32" transform="translate(472.9375 0.78125)"/>
     <use xlink:href="#DejaVuSans-20" transform="translate(536.560547 0.78125)"/>
     <use xlink:href="#DejaVuSans-4e" transform="translate(568.347656 0.78125)"/>
    </g>
   </g>
   <g id="patch_8">
    <path d="M 116.990168 116.404911 
Q 98.545136 88.054598 80.894529 60.92533 
" style="fill: none; stroke: #2e8b57; stroke-width: 1.8; stroke-linecap: round"/>
    <path d="M 80.815258 61.812019 
L 80.894529 60.92533 
L 81.737289 61.212135 
" style="fill: none; stroke: #2e8b57; stroke-width: 1.8; stroke-linecap: round"/>
   </g>
   <g id="text_3">
    <g id="patch_9">
     <path d="M 46.89097 51.462184 
L 96.24097 51.462184 
Q 97.36597 51.462184 97.36597 50.337184 
L 97.36597 42.837184 
Q 97.36597 41.712184 96.24097 41.712184 
L 46.89097 41.712184 
Q 45.76597 41.712184 45.76597 42.837184 
L 45.76597 50.337184 
Q 45.76597 51.462184 46.89097 51.462184 
z
" style="fill: #ffffff; opacity: 0.85"/>
    </g>
    <!-- $F_{\rm cb,lift}$  70.2 N -->
    <g style="fill: #2e8b57" transform="translate(46.89097 48.462184) scale(0.075 -0.075)">
     <defs>
      <path id="DejaVuSans-63" d="M 3122 3366 
L 3122 2828 
Q 2878 2963 2633 3030 
Q 2388 3097 2138 3097 
Q 1578 3097 1268 2742 
Q 959 2388 959 1747 
Q 959 1106 1268 751 
Q 1578 397 2138 397 
Q 2388 397 2633 464 
Q 2878 531 3122 666 
L 3122 134 
Q 2881 22 2623 -34 
Q 2366 -91 2075 -91 
Q 1284 -91 818 406 
Q 353 903 353 1747 
Q 353 2603 823 3093 
Q 1294 3584 2113 3584 
Q 2378 3584 2631 3529 
Q 2884 3475 3122 3366 
z
" transform="scale(0.015625)"/>
      <path id="DejaVuSans-62" d="M 3116 1747 
Q 3116 2381 2855 2742 
Q 2594 3103 2138 3103 
Q 1681 3103 1420 2742 
Q 1159 2381 1159 1747 
Q 1159 1113 1420 752 
Q 1681 391 2138 391 
Q 2594 391 2855 752 
Q 3116 1113 3116 1747 
z
M 1159 2969 
Q 1341 3281 1617 3432 
Q 1894 3584 2278 3584 
Q 2916 3584 3314 3078 
Q 3713 2572 3713 1747 
Q 3713 922 3314 415 
Q 2916 -91 2278 -91 
Q 1894 -91 1617 61 
Q 1341 213 1159 525 
L 1159 0 
L 581 0 
L 581 4863 
L 1159 4863 
L 1159 2969 
z
" transform="scale(0.015625)"/>
      <path id="DejaVuSans-66" d="M 2375 4863 
L 2375 4384 
L 1825 4384 
Q 1516 4384 1395 4259 
Q 1275 4134 1275 3809 
L 1275 3500 
L 2222 3500 
L 2222 3053 
L 1275 3053 
L 1275 0 
L 697 0 
L 697 3053 
L 147 3053 
L 147 3500 
L 697 3500 
L 697 3744 
Q 697 4328 969 4595 
Q 1241 4863 1831 4863 
L 2375 4863 
z
" transform="scale(0.015625)"/>
      <path id="DejaVuSans-74" d="M 1172 4494 
L 1172 3500 
L 2356 3500 
L 2356 3053 
L 1172 3053 
L 1172 1153 
Q 1172 725 1289 603 
Q 1406 481 1766 481 
L 2356 481 
L 2356 0 
L 1766 0 
Q 1100 0 847 248 
Q 594 497 594 1153 
L 594 3053 
L 172 3053 
L 172 3500 
L 594 3500 
L 594 4494 
L 1172 4494 
z
" transform="scale(0.015625)"/>
     </defs>
     <use xlink:href="#DejaVuSans-Oblique-46" transform="translate(0 0.78125)"/>
     <use xlink:href="#DejaVuSans-63" transform="translate(57.519531 -15.625) scale(0.7)"/>
     <use xlink:href="#DejaVuSans-62" transform="translate(96.005859 -15.625) scale(0.7)"/>
     <use xlink:href="#DejaVuSans-2c" transform="translate(140.439453 -15.625) scale(0.7)"/>
     <use xlink:href="#DejaVuSans-6c" transform="translate(176.328125 -15.625) scale(0.7)"/>
     <use xlink:href="#DejaVuSans-69" transform="translate(195.776367 -15.625) scale(0.7)"/>
     <use xlink:href="#DejaVuSans-66" transform="translate(215.224609 -15.625) scale(0.7)"/>
     <use xlink:href="#DejaVuSans-74" transform="translate(239.868164 -15.625) scale(0.7)"/>
     <use xlink:href="#DejaVuSans-20" transform="translate(270.048828 0.78125)"/>
     <use xlink:href="#DejaVuSans-20" transform="translate(301.835938 0.78125)"/>
     <use xlink:href="#DejaVuSans-37" transform="translate(333.623047 0.78125)"/>
     <use xlink:href="#DejaVuSans-30" transform="translate(397.246094 0.78125)"/>
     <use xlink:href="#DejaVuSans-2e" transform="translate(460.869141 0.78125)"/>
     <use xlink:href="#DejaVuSans-32" transform="translate(487.15625 0.78125)"/>
     <use xlink:href="#DejaVuSans-20" transform="translate(550.779297 0.78125)"/>
     <use xlink:href="#DejaVuSans-4e" transform="translate(582.566406 0.78125)"/>
    </g>
   </g>
   <g id="patch_10">
    <path d="M 116.401169 119.172266 
Q 105.552467 126.230554 95.924811 132.494415 
" style="fill: none; stroke: #e74c3c; stroke-width: 1.8; stroke-linecap: round"/>
    <path d="M 96.8115 132.573686 
L 95.924811 132.494415 
L 96.211616 131.651656 
" style="fill: none; stroke: #e74c3c; stroke-width: 1.8; stroke-linecap: round"/>
   </g>
   <g id="text_4">
    <g id="patch_11">
     <path d="M 36.10931 151.088418 
L 114.25931 151.088418 
Q 115.38431 151.088418 115.38431 149.963418 
L 115.38431 142.013418 
Q 115.38431 140.888418 114.25931 140.888418 
L 36.10931 140.888418 
Q 34.98431 140.888418 34.98431 142.013418 
L 34.98431 149.963418 
Q 34.98431 151.088418 36.10931 151.088418 
z
" style="fill: #ffffff; opacity: 0.85"/>
    </g>
    <!-- $F_{\rm hull}+F_{\rm cb,drag}$  29.3 N -->
    <g style="fill: #e74c3c" transform="translate(36.10931 147.638418) scale(0.075 -0.075)">
     <defs>
      <path id="DejaVuSans-68" d="M 3513 2113 
L 3513 0 
L 2938 0 
L 2938 2094 
Q 2938 2591 2744 2837 
Q 2550 3084 2163 3084 
Q 1697 3084 1428 2787 
Q 1159 2491 1159 1978 
L 1159 0 
L 581 0 
L 581 4863 
L 1159 4863 
L 1159 2956 
Q 1366 3272 1645 3428 
Q 1925 3584 2291 3584 
Q 2894 3584 3203 3211 
Q 3513 2838 3513 2113 
z
" transform="scale(0.015625)"/>
      <path id="DejaVuSans-75" d="M 544 1381 
L 544 3500 
L 1119 3500 
L 1119 1403 
Q 1119 906 1312 657 
Q 1506 409 1894 409 
Q 2359 409 2629 706 
Q 2900 1003 2900 1516 
L 2900 3500 
L 3475 3500 
L 3475 0 
L 2900 0 
L 2900 538 
Q 2691 219 2414 64 
Q 2138 -91 1772 -91 
Q 1169 -91 856 284 
Q 544 659 544 1381 
z
M 1991 3584 
L 1991 3584 
z
" transform="scale(0.015625)"/>
      <path id="DejaVuSans-2b" d="M 2944 4013 
L 2944 2272 
L 4684 2272 
L 4684 1741 
L 2944 1741 
L 2944 0 
L 2419 0 
L 2419 1741 
L 678 1741 
L 678 2272 
L 2419 2272 
L 2419 4013 
L 2944 4013 
z
" transform="scale(0.015625)"/>
      <path id="DejaVuSans-64" d="M 2906 2969 
L 2906 4863 
L 3481 4863 
L 3481 0 
L 2906 0 
L 2906 525 
Q 2725 213 2448 61 
Q 2172 -91 1784 -91 
Q 1150 -91 751 415 
Q 353 922 353 1747 
Q 353 2572 751 3078 
Q 1150 3584 1784 3584 
Q 2172 3584 2448 3432 
Q 2725 3281 2906 2969 
z
M 947 1747 
Q 947 1113 1208 752 
Q 1469 391 1925 391 
Q 2381 391 2643 752 
Q 2906 1113 2906 1747 
Q 2906 2381 2643 2742 
Q 2381 3103 1925 3103 
Q 1469 3103 1208 2742 
Q 947 2381 947 1747 
z
" transform="scale(0.015625)"/>
      <path id="DejaVuSans-72" d="M 2631 2963 
Q 2534 3019 2420 3045 
Q 2306 3072 2169 3072 
Q 1681 3072 1420 2755 
Q 1159 2438 1159 1844 
L 1159 0 
L 581 0 
L 581 3500 
L 1159 3500 
L 1159 2956 
Q 1341 3275 1631 3429 
Q 1922 3584 2338 3584 
Q 2397 3584 2469 3576 
Q 2541 3569 2628 3553 
L 2631 2963 
z
" transform="scale(0.015625)"/>
      <path id="DejaVuSans-67" d="M 2906 1791 
Q 2906 2416 2648 2759 
Q 2391 3103 1925 3103 
Q 1463 3103 1205 2759 
Q 947 2416 947 1791 
Q 947 1169 1205 825 
Q 1463 481 1925 481 
Q 2391 481 2648 825 
Q 2906 1169 2906 1791 
z
M 3481 434 
Q 3481 -459 3084 -895 
Q 2688 -1331 1869 -1331 
Q 1566 -1331 1297 -1286 
Q 1028 -1241 775 -1147 
L 775 -588 
Q 1028 -725 1275 -790 
Q 1522 -856 1778 -856 
Q 2344 -856 2625 -561 
Q 2906 -266 2906 331 
L 2906 616 
Q 2728 306 2450 153 
Q 2172 0 1784 0 
Q 1141 0 747 490 
Q 353 981 353 1791 
Q 353 2603 747 3093 
Q 1141 3584 1784 3584 
Q 2172 3584 2450 3431 
Q 2728 3278 2906 2969 
L 2906 3500 
L 3481 3500 
L 3481 434 
z
" transform="scale(0.015625)"/>
     </defs>
     <use xlink:href="#DejaVuSans-Oblique-46" transform="translate(0 0.78125)"/>
     <use xlink:href="#DejaVuSans-68" transform="translate(57.519531 -15.625) scale(0.7)"/>
     <use xlink:href="#DejaVuSans-75" transform="translate(101.884766 -15.625) scale(0.7)"/>
     <use xlink:href="#DejaVuSans-6c" transform="translate(146.25 -15.625) scale(0.7)"/>
     <use xlink:href="#DejaVuSans-6c" transform="translate(165.698242 -15.625) scale(0.7)"/>
     <use xlink:href="#DejaVuSans-2b" transform="translate(207.363281 0.78125)"/>
     <use xlink:href="#DejaVuSans-Oblique-46" transform="translate(310.634766 0.78125)"/>
     <use xlink:href="#DejaVuSans-63" transform="translate(368.154297 -15.625) scale(0.7)"/>
     <use xlink:href="#DejaVuSans-62" transform="translate(406.640625 -15.625) scale(0.7)"/>
     <use xlink:href="#DejaVuSans-2c" transform="translate(451.074219 -15.625) scale(0.7)"/>
     <use xlink:href="#DejaVuSans-64" transform="translate(486.962891 -15.625) scale(0.7)"/>
     <use xlink:href="#DejaVuSans-72" transform="translate(531.396484 -15.625) scale(0.7)"/>
     <use xlink:href="#DejaVuSans-61" transform="translate(560.175781 -15.625) scale(0.7)"/>
     <use xlink:href="#DejaVuSans-67" transform="translate(603.071289 -15.625) scale(0.7)"/>
     <use xlink:href="#DejaVuSans-20" transform="translate(650.239258 0.78125)"/>
     <use xlink:href="#DejaVuSans-20" transform="translate(682.026367 0.78125)"/>
     <use xlink:href="#DejaVuSans-32" transform="translate(713.813477 0.78125)"/>
     <use xlink:href="#DejaVuSans-39" transform="translate(775.686523 0.78125)"/>
     <use xlink:href="#DejaVuSans-2e" transform="translate(839.30957 0.78125)"/>
     <use xlink:href="#DejaVuSans-33" transform="translate(871.09668 0.78125)"/>
     <use xlink:href="#DejaVuSans-20" transform="translate(934.719727 0.78125)"/>
     <use xlink:href="#DejaVuSans-4e" transform="translate(966.506836 0.78125)"/>
    </g>
   </g>
   <g id="text_5">
    <!-- $\alpha=1.2°$ -->
    <g style="fill: #2e8b57" transform="translate(158.147751 84.831327) scale(0.08 -0.08)">
     <defs>
      <path id="DejaVuSans-Oblique-3b1" d="M 2619 1628 
L 2622 2350 
Q 2625 3088 2069 3091 
Q 1653 3094 1394 2747 
Q 1069 2319 959 1747 
Q 825 1059 994 731 
Q 1169 397 1547 397 
Q 1966 397 2319 1063 
L 2619 1628 
z
M 2166 3578 
Q 3141 3594 3128 2584 
Q 3128 2584 3616 3500 
L 4128 3500 
L 3119 1603 
L 3109 919 
Q 3109 766 3194 638 
Q 3291 488 3391 488 
L 3669 488 
L 3575 0 
L 3228 0 
Q 2934 0 2722 263 
Q 2622 394 2619 669 
Q 2416 334 2066 50 
Q 1900 -81 1453 -78 
Q 722 -72 456 397 
Q 184 884 353 1747 
Q 534 2675 1009 3097 
Q 1544 3569 2166 3578 
z
" transform="scale(0.015625)"/>
      <path id="DejaVuSans-3d" d="M 678 2906 
L 4684 2906 
L 4684 2381 
L 678 2381 
L 678 2906 
z
M 678 1631 
L 4684 1631 
L 4684 1100 
L 678 1100 
L 678 1631 
z
" transform="scale(0.015625)"/>
      <path id="DejaVuSans-31" d="M 794 531 
L 1825 531 
L 1825 4091 
L 703 3866 
L 703 4441 
L 1819 4666 
L 2450 4666 
L 2450 531 
L 3481 531 
L 3481 0 
L 794 0 
L 794 531 
z
" transform="scale(0.015625)"/>
      <path id="DejaVuSans-b0" d="M 1600 4347 
Q 1350 4347 1178 4173 
Q 1006 4000 1006 3750 
Q 1006 3503 1178 3333 
Q 1350 3163 1600 3163 
Q 1850 3163 2022 3333 
Q 2194 3503 2194 3750 
Q 2194 3997 2020 4172 
Q 1847 4347 1600 4347 
z
M 1600 4750 
Q 1800 4750 1984 4673 
Q 2169 4597 2303 4453 
Q 2447 4313 2519 4134 
Q 2591 3956 2591 3750 
Q 2591 3338 2302 3052 
Q 2013 2766 1594 2766 
Q 1172 2766 890 3047 
Q 609 3328 609 3750 
Q 609 4169 896 4459 
Q 1184 4750 1600 4750 
z
" transform="scale(0.015625)"/>
     </defs>
     <use xlink:href="#DejaVuSans-Oblique-3b1" transform="translate(0 0.78125)"/>
     <use xlink:href="#DejaVuSans-3d" transform="translate(85.400391 0.78125)"/>
     <use xlink:href="#DejaVuSans-31" transform="translate(188.671875 0.78125)"/>
     <use xlink:href="#DejaVuSans-2e" transform="translate(252.294922 0.78125)"/>
     <use xlink:href="#DejaVuSans-32" transform="translate(278.582031 0.78125)"/>
     <use xlink:href="#DejaVuSans-b0" transform="translate(342.205078 0.78125)"/>
    </g>
   </g>
   <g id="patch_12">
    <path d="M 41.316923 55.260633 
Q 41.316923 65.199954 41.316923 73.673336 
" style="fill: none; stroke: #5b9bd5; stroke-width: 1.8; stroke-linecap: round"/>
    <path d="M 41.666923 73.223336 
L 41.316923 73.673336 
L 40.966923 73.223336 
" style="fill: none; stroke: #5b9bd5; stroke-width: 1.8; stroke-linecap: round"/>
   </g>
   <g id="text_6">
    <!-- wind -->
    <g style="fill: #5b9bd5" transform="translate(32.451103 87.374769) scale(0.075 -0.075)">
     <defs>
      <path id="DejaVuSans-77" d="M 269 3500 
L 844 3500 
L 1563 769 
L 2278 3500 
L 2956 3500 
L 3675 769 
L 4391 3500 
L 4966 3500 
L 4050 0 
L 3372 0 
L 2619 2869 
L 1863 0 
L 1184 0 
L 269 3500 
z
" transform="scale(0.015625)"/>
      <path id="DejaVuSans-6e" d="M 3513 2113 
L 3513 0 
L 2938 0 
L 2938 2094 
Q 2938 2591 2744 2837 
Q 2550 3084 2163 3084 
Q 1697 3084 1428 2787 
Q 1159 2491 1159 1978 
L 1159 0 
L 581 0 
L 581 3500 
L 1159 3500 
L 1159 2956 
Q 1366 3272 1645 3428 
Q 1925 3584 2291 3584 
Q 2894 3584 3203 3211 
Q 3513 2838 3513 2113 
z
" transform="scale(0.015625)"/>
     </defs>
     <use xlink:href="#DejaVuSans-77"/>
     <use xlink:href="#DejaVuSans-69" transform="translate(81.787109 0)"/>
     <use xlink:href="#DejaVuSans-6e" transform="translate(109.570312 0)"/>
     <use xlink:href="#DejaVuSans-64" transform="translate(172.949219 0)"/>
    </g>
   </g>
   <g id="line2d_1">
    <path d="M 130.948707 109.707475 
L 107.769565 130.38463 
L 102.653021 122.520421 
L 130.948707 109.707475 
" clip-path="url(#p90d0f037e3)" style="fill: none; stroke: #696969; stroke-linecap: square"/>
   </g>
  </g>
 </g>
 <defs>
  <clipPath id="p90d0f037e3">
   <rect x="7.2" y="7.2" width="221.76" height="221.76"/>
  </clipPath>
 </defs>
</svg>
