<?xml version="1.0" encoding="utf-8" standalone="no"?>
<!DOCTYPE svg PUBLIC "-//W3C//DTD SVG 1.1//EN"
  "http://www.w3.org/Graphics/SVG/1.1/DTD/svg11.dtd">
<svg xmlns:xlink="http://www.w3.org/1999/xlink" width="225.072pt" height="225.072pt" viewBox="0 0 225.072 225.072" xmlns="http://www.w3.org/2000/svg" version="1.1">
 <metadata>
  <rdf:RDF xmlns:dc="http://purl.org/dc/elements/1.1/" xmlns:cc="http://creativecommons.org/ns#" xmlns:rdf="http://www.w3.org/1999/02/22-rdf-syntax-ns#">
   <cc:Work>
    <dc:type rdf:resource="http://purl.org/dc/dcmitype/StillImage"/>
    <dc:date>2026-03-22T08:04:45.301472</dc:date>
    <dc:format>image/svg+xml</dc:format>
    <dc:creator>
     <cc:Agent>
      <dc:title>Matplotlib v3.10.1, https://matplotlib.org/</dc:title>
     </cc:Agent>
    </dc:creator>
   </cc:Work>
  </rdf:RDF>
 </metadata>
 <defs>
  <style type="text/css">*{stroke-linejoin: round; stroke-linecap: butt}</style>
 </defs>
 <g id="figure_1">
  <g id="patch_1">
   <path d="M 0 225.072 
L 225.072 225.072 
L 225.072 -0 
L 0 -0 
z
" style="fill: #ffffff"/>
  </g>
  <g id="axes_1">
   <g id="patch_2">
    <path d="M 124.744375 104.556191 
L 102.765899 124.246146 
L 97.88935 116.785472 
z
" clip-path="url(#pf31131e75e)" style="fill: #696969; opacity: 0.7; stroke: #696969; stroke-linejoin: miter"/>
   </g>
   <g id="patch_3">
    <path d="M 114.209496 111.442146 
Q 124.374804 104.797756 133.320753 98.95038 
" style="fill: none; stroke: #4682b4; stroke-width: 1.8; stroke-linecap: round"/>
    <path d="M 132.433898 98.872989 
L 133.320753 98.95038 
L 133.035736 99.793746 
" style="fill: none; stroke: #4682b4; stroke-width: 1.8; stroke-linecap: round"/>
   </g>
   <g id="text_1">
    <g id="patch_4">
     <path d="M 90.635858 93.838325 
L 142.395858 93.838325 
Q 143.595858 93.838325 143.595858 92.638325 
L 143.595858 84.638325 
Q 143.595858 83.438325 142.395858 83.438325 
L 90.635858 83.438325 
Q 89.435858 83.438325 89.435858 84.638325 
L 89.435858 92.638325 
Q 89.435858 93.838325 90.635858 93.838325 
z
" style="fill: #ffffff; opacity: 0.75"/>
    </g>
    <!-- $F_{\rm sail,x}$  29.1 N -->
    <g style="fill: #4682b4" transform="translate(90.635858 90.638325) scale(0.08 -0.08)">
     <defs>
      <path id="DejaVuSans-Oblique-46" d="M 1081 4666 
L 3756 4666 
L 3653 4134 
L 1606 4134 
L 1338 2759 
L 3188 2759 
L 3084 2228 
L 1234 2228 
L 800 0 
L 172 0 
L 1081 4666 
z
" transform="scale(0.015625)"/>
      <path id="DejaVuSans-73" d="M 2834 3397 
L 2834 2853 
Q 2591 2978 2328 3040 
Q 2066 3103 1784 3103 
Q 1356 3103 1142 2972 
Q 928 2841 928 2578 
Q 928 2378 1081 2264 
Q 1234 2150 1697 2047 
L 1894 2003 
Q 2506 1872 2764 1633 
Q 3022 1394 3022 966 
Q 3022 478 2636 193 
Q 2250 -91 1575 -91 
Q 1294 -91 989 -36 
Q 684 19 347 128 
L 347 722 
Q 666 556 975 473 
Q 1284 391 1588 391 
Q 1994 391 2212 530 
Q 2431 669 2431 922 
Q 2431 1156 2273 1281 
Q 2116 1406 1581 1522 
L 1381 1569 
Q 847 1681 609 1914 
Q 372 2147 372 2553 
Q 372 3047 722 3315 
Q 1072 3584 1716 3584 
Q 2034 3584 2315 3537 
Q 2597 3491 2834 3397 
z
" transform="scale(0.015625)"/>
      <path id="DejaVuSans-61" d="M 2194 1759 
Q 1497 1759 1228 1600 
Q 959 1441 959 1056 
Q 959 750 1161 570 
Q 1363 391 1709 391 
Q 2188 391 2477 730 
Q 2766 1069 2766 1631 
L 2766 1759 
L 2194 1759 
z
M 3341 1997 
L 3341 0 
L 2766 0 
L 2766 531 
Q 2569 213 2275 61 
Q 1981 -91 1556 -91 
Q 1019 -91 701 211 
Q 384 513 384 1019 
Q 384 1609 779 1909 
Q 1175 2209 1959 2209 
L 2766 2209 
L 2766 2266 
Q 2766 2663 2505 2880 
Q 2244 3097 1772 3097 
Q 1472 3097 1187 3025 
Q 903 2953 641 2809 
L 641 3341 
Q 956 3463 1253 3523 
Q 1550 3584 1831 3584 
Q 2591 3584 2966 3190 
Q 3341 2797 3341 1997 
z
" transform="scale(0.015625)"/>
      <path id="DejaVuSans-69" d="M 603 3500 
L 1178 3500 
L 1178 0 
L 603 0 
L 603 3500 
z
M 603 4863 
L 1178 4863 
L 1178 4134 
L 603 4134 
L 603 4863 
z
" transform="scale(0.015625)"/>
      <path id="DejaVuSans-6c" d="M 603 4863 
L 1178 4863 
L 1178 0 
L 603 0 
L 603 4863 
z
" transform="scale(0.015625)"/>
      <path id="DejaVuSans-2c" d="M 750 794 
L 1409 794 
L 1409 256 
L 897 -744 
L 494 -744 
L 750 256 
L 750 794 
z
" transform="scale(0.015625)"/>
      <path id="DejaVuSans-78" d="M 3513 3500 
L 2247 1797 
L 3578 0 
L 2900 0 
L 1881 1375 
L 863 0 
L 184 0 
L 1544 1831 
L 300 3500 
L 978 3500 
L 1906 2253 
L 2834 3500 
L 3513 3500 
z
" transform="scale(0.015625)"/>
      <path id="DejaVuSans-20" transform="scale(0.015625)"/>
      <path id="DejaVuSans-32" d="M 1228 531 
L 3431 531 
L 3431 0 
L 469 0 
L 469 531 
Q 828 903 1448 1529 
Q 2069 2156 2228 2338 
Q 2531 2678 2651 2914 
Q 2772 3150 2772 3378 
Q 2772 3750 2511 3984 
Q 2250 4219 1831 4219 
Q 1534 4219 1204 4116 
Q 875 4013 500 3803 
L 500 4441 
Q 881 4594 1212 4672 
Q 1544 4750 1819 4750 
Q 2544 4750 2975 4387 
Q 3406 4025 3406 3419 
Q 3406 3131 3298 2873 
Q 3191 2616 2906 2266 
Q 2828 2175 2409 1742 
Q 1991 1309 1228 531 
z
" transform="scale(0.015625)"/>
      <path id="DejaVuSans-39" d="M 703 97 
L 703 672 
Q 941 559 1184 500 
Q 1428 441 1663 441 
Q 2288 441 2617 861 
Q 2947 1281 2994 2138 
Q 2813 1869 2534 1725 
Q 2256 1581 1919 1581 
Q 1219 1581 811 2004 
Q 403 2428 403 3163 
Q 403 3881 828 4315 
Q 1253 4750 1959 4750 
Q 2769 4750 3195 4129 
Q 3622 3509 3622 2328 
Q 3622 1225 3098 567 
Q 2575 -91 1691 -91 
Q 1453 -91 1209 -44 
Q 966 3 703 97 
z
M 1959 2075 
Q 2384 2075 2632 2365 
Q 2881 2656 2881 3163 
Q 2881 3666 2632 3958 
Q 2384 4250 1959 4250 
Q 1534 4250 1286 3958 
Q 1038 3666 1038 3163 
Q 1038 2656 1286 2365 
Q 1534 2075 1959 2075 
z
" transform="scale(0.015625)"/>
      <path id="DejaVuSans-2e" d="M 684 794 
L 1344 794 
L 1344 0 
L 684 0 
L 684 794 
z
" transform="scale(0.015625)"/>
      <path id="DejaVuSans-31" d="M 794 531 
L 1825 531 
L 1825 4091 
L 703 3866 
L 703 4441 
L 1819 4666 
L 2450 4666 
L 2450 531 
L 3481 531 
L 3481 0 
L 794 0 
L 794 531 
z
" transform="scale(0.015625)"/>
      <path id="DejaVuSans-4e" d="M 628 4666 
L 1478 4666 
L 3547 763 
L 3547 4666 
L 4159 4666 
L 4159 0 
L 3309 0 
L 1241 3903 
L 1241 0 
L 628 0 
L 628 4666 
z
" transform="scale(0.015625)"/>
     </defs>
     <use xlink:href="#DejaVuSans-Oblique-46" transform="translate(0 0.78125)"/>
     <use xlink:href="#DejaVuSans-73" transform="translate(57.519531 -15.625) scale(0.7)"/>
     <use xlink:href="#DejaVuSans-61" transform="translate(93.989258 -15.625) scale(0.7)"/>
     <use xlink:href="#DejaVuSans-69" transform="translate(136.884766 -15.625) scale(0.7)"/>
     <use xlink:href="#DejaVuSans-6c" transform="translate(156.333008 -15.625) scale(0.7)"/>
     <use xlink:href="#DejaVuSans-2c" transform="translate(175.78125 -15.625) scale(0.7)"/>
     <use xlink:href="#DejaVuSans-78" transform="translate(211.669922 -15.625) scale(0.7)"/>
     <use xlink:href="#DejaVuSans-20" transform="translate(255.830078 0.78125)"/>
     <use xlink:href="#DejaVuSans-20" transform="translate(287.617188 0.78125)"/>
     <use xlink:href="#DejaVuSans-32" transform="translate(319.404297 0.78125)"/>
     <use xlink:href="#DejaVuSans-39" transform="translate(381.277344 0.78125)"/>
     <use xlink:href="#DejaVuSans-2e" transform="translate(444.900391 0.78125)"/>
     <use xlink:href="#DejaVuSans-31" transform="translate(476.6875 0.78125)"/>
     <use xlink:href="#DejaVuSans-20" transform="translate(540.310547 0.78125)"/>
     <use xlink:href="#DejaVuSans-4e" transform="translate(572.097656 0.78125)"/>
    </g>
   </g>
   <g id="patch_5">
    <path d="M 110.862504 113.629854 
Q 100.697196 120.274244 91.751247 126.12162 
" style="fill: none; stroke: #e74c3c; stroke-width: 1.8; stroke-linecap: round"/>
    <path d="M 92.638102 126.199011 
L 91.751247 126.12162 
L 92.036264 125.278254 
" style="fill: none; stroke: #e74c3c; stroke-width: 1.8; stroke-linecap: round"/>
   </g>
   <g id="text_2">
    <g id="patch_6">
     <path d="M 65.889944 111.662229 
L 112.209944 111.662229 
Q 113.409944 111.662229 113.409944 110.462229 
L 113.409944 102.719729 
Q 113.409944 101.519729 112.209944 101.519729 
L 65.889944 101.519729 
Q 64.689944 101.519729 64.689944 102.719729 
L 64.689944 110.462229 
Q 64.689944 111.662229 65.889944 111.662229 
z
" style="fill: #ffffff; opacity: 0.75"/>
    </g>
    <!-- $F_{\rm hull}$  29.1 N -->
    <g style="fill: #e74c3c" transform="translate(65.889944 108.798479) scale(0.08 -0.08)">
     <defs>
      <path id="DejaVuSans-68" d="M 3513 2113 
L 3513 0 
L 2938 0 
L 2938 2094 
Q 2938 2591 2744 2837 
Q 2550 3084 2163 3084 
Q 1697 3084 1428 2787 
Q 1159 2491 1159 1978 
L 1159 0 
L 581 0 
L 581 4863 
L 1159 4863 
L 1159 2956 
Q 1366 3272 1645 3428 
Q 1925 3584 2291 3584 
Q 2894 3584 3203 3211 
Q 3513 2838 3513 2113 
z
" transform="scale(0.015625)"/>
      <path id="DejaVuSans-75" d="M 544 1381 
L 544 3500 
L 1119 3500 
L 1119 1403 
Q 1119 906 1312 657 
Q 1506 409 1894 409 
Q 2359 409 2629 706 
Q 2900 1003 2900 1516 
L 2900 3500 
L 3475 3500 
L 3475 0 
L 2900 0 
L 2900 538 
Q 2691 219 2414 64 
Q 2138 -91 1772 -91 
Q 1169 -91 856 284 
Q 544 659 544 1381 
z
M 1991 3584 
L 1991 3584 
z
" transform="scale(0.015625)"/>
     </defs>
     <use xlink:href="#DejaVuSans-Oblique-46" transform="translate(0 0.78125)"/>
     <use xlink:href="#DejaVuSans-68" transform="translate(57.519531 -15.625) scale(0.7)"/>
     <use xlink:href="#DejaVuSans-75" transform="translate(101.884766 -15.625) scale(0.7)"/>
     <use xlink:href="#DejaVuSans-6c" transform="translate(146.25 -15.625) scale(0.7)"/>
     <use xlink:href="#DejaVuSans-6c" transform="translate(165.698242 -15.625) scale(0.7)"/>
     <use xlink:href="#DejaVuSans-20" transform="translate(187.880859 0.78125)"/>
     <use xlink:href="#DejaVuSans-20" transform="translate(219.667969 0.78125)"/>
     <use xlink:href="#DejaVuSans-32" transform="translate(251.455078 0.78125)"/>
     <use xlink:href="#DejaVuSans-39" transform="translate(313.328125 0.78125)"/>
     <use xlink:href="#DejaVuSans-2e" transform="translate(376.951172 0.78125)"/>
     <use xlink:href="#DejaVuSans-31" transform="translate(408.738281 0.78125)"/>
     <use xlink:href="#DejaVuSans-20" transform="translate(472.361328 0.78125)"/>
     <use xlink:href="#DejaVuSans-4e" transform="translate(504.148438 0.78125)"/>
    </g>
   </g>
   <g id="patch_7">
    <path d="M 113.629262 114.208591 
Q 131.156158 141.023135 148.107433 166.95703 
" style="fill: none; stroke-dasharray: 4.81,2.08; stroke-dashoffset: 0; stroke: #808080; stroke-width: 1.3; stroke-linecap: round"/>
    <path d="M 148.184824 166.070176 
L 148.107433 166.95703 
L 147.264067 166.672013 
" style="fill: none; stroke-dasharray: 4.81,2.08; stroke-dashoffset: 0; stroke: #808080; stroke-width: 1.3; stroke-linecap: round"/>
   </g>
   <g id="text_3">
    <g id="patch_8">
     <path d="M 136.963997 196.441918 
L 185.638997 196.441918 
Q 186.763997 196.441918 186.763997 195.316918 
L 186.763997 178.203325 
Q 186.763997 177.078325 185.638997 177.078325 
L 136.963997 177.078325 
Q 135.838997 177.078325 135.838997 178.203325 
L 135.838997 195.316918 
Q 135.838997 196.441918 136.963997 196.441918 
z
" style="fill: #ffffff; opacity: 0.8"/>
    </g>
    <!-- $F_{\rm sail,y}$  70.0 N -->
    <g style="fill: #808080" transform="translate(136.963997 184.593559) scale(0.075 -0.075)">
     <defs>
      <path id="DejaVuSans-79" d="M 2059 -325 
Q 1816 -950 1584 -1140 
Q 1353 -1331 966 -1331 
L 506 -1331 
L 506 -850 
L 844 -850 
Q 1081 -850 1212 -737 
Q 1344 -625 1503 -206 
L 1606 56 
L 191 3500 
L 800 3500 
L 1894 763 
L 2988 3500 
L 3597 3500 
L 2059 -325 
z
" transform="scale(0.015625)"/>
      <path id="DejaVuSans-37" d="M 525 4666 
L 3525 4666 
L 3525 4397 
L 1831 0 
L 1172 0 
L 2766 4134 
L 525 4134 
L 525 4666 
z
" transform="scale(0.015625)"/>
      <path id="DejaVuSans-30" d="M 2034 4250 
Q 1547 4250 1301 3770 
Q 1056 3291 1056 2328 
Q 1056 1369 1301 889 
Q 1547 409 2034 409 
Q 2525 409 2770 889 
Q 3016 1369 3016 2328 
Q 3016 3291 2770 3770 
Q 2525 4250 2034 4250 
z
M 2034 4750 
Q 2819 4750 3233 4129 
Q 3647 3509 3647 2328 
Q 3647 1150 3233 529 
Q 2819 -91 2034 -91 
Q 1250 -91 836 529 
Q 422 1150 422 2328 
Q 422 3509 836 4129 
Q 1250 4750 2034 4750 
z
" transform="scale(0.015625)"/>
     </defs>
     <use xlink:href="#DejaVuSans-Oblique-46" transform="translate(0 0.78125)"/>
     <use xlink:href="#DejaVuSans-73" transform="translate(57.519531 -15.625) scale(0.7)"/>
     <use xlink:href="#DejaVuSans-61" transform="translate(93.989258 -15.625) scale(0.7)"/>
     <use xlink:href="#DejaVuSans-69" transform="translate(136.884766 -15.625) scale(0.7)"/>
     <use xlink:href="#DejaVuSans-6c" transform="translate(156.333008 -15.625) scale(0.7)"/>
     <use xlink:href="#DejaVuSans-2c" transform="translate(175.78125 -15.625) scale(0.7)"/>
     <use xlink:href="#DejaVuSans-79" transform="translate(211.669922 -15.625) scale(0.7)"/>
     <use xlink:href="#DejaVuSans-20" transform="translate(255.830078 0.78125)"/>
     <use xlink:href="#DejaVuSans-20" transform="translate(287.617188 0.78125)"/>
     <use xlink:href="#DejaVuSans-37" transform="translate(319.404297 0.78125)"/>
     <use xlink:href="#DejaVuSans-30" transform="translate(383.027344 0.78125)"/>
     <use xlink:href="#DejaVuSans-2e" transform="translate(446.650391 0.78125)"/>
     <use xlink:href="#DejaVuSans-30" transform="translate(478.4375 0.78125)"/>
     <use xlink:href="#DejaVuSans-20" transform="translate(542.060547 0.78125)"/>
     <use xlink:href="#DejaVuSans-4e" transform="translate(573.847656 0.78125)"/>
    </g>
    <!-- (cancelled) -->
    <g style="fill: #808080" transform="translate(140.497786 193.757153) scale(0.075 -0.075)">
     <defs>
      <path id="DejaVuSans-28" d="M 1984 4856 
Q 1566 4138 1362 3434 
Q 1159 2731 1159 2009 
Q 1159 1288 1364 580 
Q 1569 -128 1984 -844 
L 1484 -844 
Q 1016 -109 783 600 
Q 550 1309 550 2009 
Q 550 2706 781 3412 
Q 1013 4119 1484 4856 
L 1984 4856 
z
" transform="scale(0.015625)"/>
      <path id="DejaVuSans-63" d="M 3122 3366 
L 3122 2828 
Q 2878 2963 2633 3030 
Q 2388 3097 2138 3097 
Q 1578 3097 1268 2742 
Q 959 2388 959 1747 
Q 959 1106 1268 751 
Q 1578 397 2138 397 
Q 2388 397 2633 464 
Q 2878 531 3122 666 
L 3122 134 
Q 2881 22 2623 -34 
Q 2366 -91 2075 -91 
Q 1284 -91 818 406 
Q 353 903 353 1747 
Q 353 2603 823 3093 
Q 1294 3584 2113 3584 
Q 2378 3584 2631 3529 
Q 2884 3475 3122 3366 
z
" transform="scale(0.015625)"/>
      <path id="DejaVuSans-6e" d="M 3513 2113 
L 3513 0 
L 2938 0 
L 2938 2094 
Q 2938 2591 2744 2837 
Q 2550 3084 2163 3084 
Q 1697 3084 1428 2787 
Q 1159 2491 1159 1978 
L 1159 0 
L 581 0 
L 581 3500 
L 1159 3500 
L 1159 2956 
Q 1366 3272 1645 3428 
Q 1925 3584 2291 3584 
Q 2894 3584 3203 3211 
Q 3513 2838 3513 2113 
z
" transform="scale(0.015625)"/>
      <path id="DejaVuSans-65" d="M 3597 1894 
L 3597 1613 
L 953 1613 
Q 991 1019 1311 708 
Q 1631 397 2203 397 
Q 2534 397 2845 478 
Q 3156 559 3463 722 
L 3463 178 
Q 3153 47 2828 -22 
Q 2503 -91 2169 -91 
Q 1331 -91 842 396 
Q 353 884 353 1716 
Q 353 2575 817 3079 
Q 1281 3584 2069 3584 
Q 2775 3584 3186 3129 
Q 3597 2675 3597 1894 
z
M 3022 2063 
Q 3016 2534 2758 2815 
Q 2500 3097 2075 3097 
Q 1594 3097 1305 2825 
Q 1016 2553 972 2059 
L 3022 2063 
z
" transform="scale(0.015625)"/>
      <path id="DejaVuSans-64" d="M 2906 2969 
L 2906 4863 
L 3481 4863 
L 3481 0 
L 2906 0 
L 2906 525 
Q 2725 213 2448 61 
Q 2172 -91 1784 -91 
Q 1150 -91 751 415 
Q 353 922 353 1747 
Q 353 2572 751 3078 
Q 1150 3584 1784 3584 
Q 2172 3584 2448 3432 
Q 2725 3281 2906 2969 
z
M 947 1747 
Q 947 1113 1208 752 
Q 1469 391 1925 391 
Q 2381 391 2643 752 
Q 2906 1113 2906 1747 
Q 2906 2381 2643 2742 
Q 2381 3103 1925 3103 
Q 1469 3103 1208 2742 
Q 947 2381 947 1747 
z
" transform="scale(0.015625)"/>
      <path id="DejaVuSans-29" d="M 513 4856 
L 1013 4856 
Q 1481 4119 1714 3412 
Q 1947 2706 1947 2009 
Q 1947 1309 1714 600 
Q 1481 -109 1013 -844 
L 513 -844 
Q 928 -128 1133 580 
Q 1338 1288 1338 2009 
Q 1338 2731 1133 3434 
Q 928 4138 513 4856 
z
" transform="scale(0.015625)"/>
     </defs>
     <use xlink:href="#DejaVuSans-28"/>
     <use xlink:href="#DejaVuSans-63" transform="translate(39.013672 0)"/>
     <use xlink:href="#DejaVuSans-61" transform="translate(93.994141 0)"/>
     <use xlink:href="#DejaVuSans-6e" transform="translate(155.273438 0)"/>
     <use xlink:href="#DejaVuSans-63" transform="translate(218.652344 0)"/>
     <use xlink:href="#DejaVuSans-65" transform="translate(273.632812 0)"/>
     <use xlink:href="#DejaVuSans-6c" transform="translate(335.15625 0)"/>
     <use xlink:href="#DejaVuSans-6c" transform="translate(362.939453 0)"/>
     <use xlink:href="#DejaVuSans-65" transform="translate(390.722656 0)"/>
     <use xlink:href="#DejaVuSans-64" transform="translate(452.246094 0)"/>
     <use xlink:href="#DejaVuSans-29" transform="translate(515.722656 0)"/>
    </g>
   </g>
   <g id="patch_9">
    <path d="M 111.442738 110.863409 
Q 93.915842 84.048865 76.964567 58.11497 
" style="fill: none; stroke-dasharray: 4.81,2.08; stroke-dashoffset: 0; stroke: #808080; stroke-width: 1.3; stroke-linecap: round"/>
    <path d="M 76.887176 59.001824 
L 76.964567 58.11497 
L 77.807933 58.399987 
" style="fill: none; stroke-dasharray: 4.81,2.08; stroke-dashoffset: 0; stroke: #808080; stroke-width: 1.3; stroke-linecap: round"/>
   </g>
   <g id="text_4">
    <g id="patch_10">
     <path d="M 43.670503 46.882738 
L 83.870503 46.882738 
Q 84.995503 46.882738 84.995503 45.757738 
L 84.995503 30.100785 
Q 84.995503 28.975785 83.870503 28.975785 
L 43.670503 28.975785 
Q 42.545503 28.975785 42.545503 30.100785 
L 42.545503 45.757738 
Q 42.545503 46.882738 43.670503 46.882738 
z
" style="fill: #ffffff; opacity: 0.8"/>
    </g>
    <!-- $F_{\rm cb}$  70.0 N -->
    <g style="fill: #808080" transform="translate(43.670503 35.799613) scale(0.075 -0.075)">
     <defs>
      <path id="DejaVuSans-62" d="M 3116 1747 
Q 3116 2381 2855 2742 
Q 2594 3103 2138 3103 
Q 1681 3103 1420 2742 
Q 1159 2381 1159 1747 
Q 1159 1113 1420 752 
Q 1681 391 2138 391 
Q 2594 391 2855 752 
Q 3116 1113 3116 1747 
z
M 1159 2969 
Q 1341 3281 1617 3432 
Q 1894 3584 2278 3584 
Q 2916 3584 3314 3078 
Q 3713 2572 3713 1747 
Q 3713 922 3314 415 
Q 2916 -91 2278 -91 
Q 1894 -91 1617 61 
Q 1341 213 1159 525 
L 1159 0 
L 581 0 
L 581 4863 
L 1159 4863 
L 1159 2969 
z
" transform="scale(0.015625)"/>
     </defs>
     <use xlink:href="#DejaVuSans-Oblique-46" transform="translate(0 0.78125)"/>
     <use xlink:href="#DejaVuSans-63" transform="translate(57.519531 -15.625) scale(0.7)"/>
     <use xlink:href="#DejaVuSans-62" transform="translate(96.005859 -15.625) scale(0.7)"/>
     <use xlink:href="#DejaVuSans-20" transform="translate(143.173828 0.78125)"/>
     <use xlink:href="#DejaVuSans-20" transform="translate(174.960938 0.78125)"/>
     <use xlink:href="#DejaVuSans-37" transform="translate(206.748047 0.78125)"/>
     <use xlink:href="#DejaVuSans-30" transform="translate(270.371094 0.78125)"/>
     <use xlink:href="#DejaVuSans-2e" transform="translate(333.994141 0.78125)"/>
     <use xlink:href="#DejaVuSans-30" transform="translate(365.78125 0.78125)"/>
     <use xlink:href="#DejaVuSans-20" transform="translate(429.404297 0.78125)"/>
     <use xlink:href="#DejaVuSans-4e" transform="translate(461.191406 0.78125)"/>
    </g>
    <!-- (reaction) -->
    <g style="fill: #808080" transform="translate(45.536714 44.197972) scale(0.075 -0.075)">
     <defs>
      <path id="DejaVuSans-72" d="M 2631 2963 
Q 2534 3019 2420 3045 
Q 2306 3072 2169 3072 
Q 1681 3072 1420 2755 
Q 1159 2438 1159 1844 
L 1159 0 
L 581 0 
L 581 3500 
L 1159 3500 
L 1159 2956 
Q 1341 3275 1631 3429 
Q 1922 3584 2338 3584 
Q 2397 3584 2469 3576 
Q 2541 3569 2628 3553 
L 2631 2963 
z
" transform="scale(0.015625)"/>
      <path id="DejaVuSans-74" d="M 1172 4494 
L 1172 3500 
L 2356 3500 
L 2356 3053 
L 1172 3053 
L 1172 1153 
Q 1172 725 1289 603 
Q 1406 481 1766 481 
L 2356 481 
L 2356 0 
L 1766 0 
Q 1100 0 847 248 
Q 594 497 594 1153 
L 594 3053 
L 172 3053 
L 172 3500 
L 594 3500 
L 594 4494 
L 1172 4494 
z
" transform="scale(0.015625)"/>
      <path id="DejaVuSans-6f" d="M 1959 3097 
Q 1497 3097 1228 2736 
Q 959 2375 959 1747 
Q 959 1119 1226 758 
Q 1494 397 1959 397 
Q 2419 397 2687 759 
Q 2956 1122 2956 1747 
Q 2956 2369 2687 2733 
Q 2419 3097 1959 3097 
z
M 1959 3584 
Q 2709 3584 3137 3096 
Q 3566 2609 3566 1747 
Q 3566 888 3137 398 
Q 2709 -91 1959 -91 
Q 1206 -91 779 398 
Q 353 888 353 1747 
Q 353 2609 779 3096 
Q 1206 3584 1959 3584 
z
" transform="scale(0.015625)"/>
     </defs>
     <use xlink:href="#DejaVuSans-28"/>
     <use xlink:href="#DejaVuSans-72" transform="translate(39.013672 0)"/>
     <use xlink:href="#DejaVuSans-65" transform="translate(77.876953 0)"/>
     <use xlink:href="#DejaVuSans-61" transform="translate(139.400391 0)"/>
     <use xlink:href="#DejaVuSans-63" transform="translate(200.679688 0)"/>
     <use xlink:href="#DejaVuSans-74" transform="translate(255.660156 0)"/>
     <use xlink:href="#DejaVuSans-69" transform="translate(294.869141 0)"/>
     <use xlink:href="#DejaVuSans-6f" transform="translate(322.652344 0)"/>
     <use xlink:href="#DejaVuSans-6e" transform="translate(383.833984 0)"/>
     <use xlink:href="#DejaVuSans-29" transform="translate(447.212891 0)"/>
    </g>
   </g>
   <g id="patch_11">
    <path d="M 39.611077 52.957303 
Q 39.611077 62.298814 39.611077 70.174384 
" style="fill: none; stroke: #5b9bd5; stroke-width: 1.8; stroke-linecap: round"/>
    <path d="M 39.961077 69.724384 
L 39.611077 70.174384 
L 39.261077 69.724384 
" style="fill: none; stroke: #5b9bd5; stroke-width: 1.8; stroke-linecap: round"/>
   </g>
   <g id="text_5">
    <!-- wind -->
    <g style="fill: #5b9bd5" transform="translate(30.745257 42.852185) scale(0.075 -0.075)">
     <defs>
      <path id="DejaVuSans-77" d="M 269 3500 
L 844 3500 
L 1563 769 
L 2278 3500 
L 2956 3500 
L 3675 769 
L 4391 3500 
L 4966 3500 
L 4050 0 
L 3372 0 
L 2619 2869 
L 1863 0 
L 1184 0 
L 269 3500 
z
" transform="scale(0.015625)"/>
     </defs>
     <use xlink:href="#DejaVuSans-77"/>
     <use xlink:href="#DejaVuSans-69" transform="translate(81.787109 0)"/>
     <use xlink:href="#DejaVuSans-6e" transform="translate(109.570312 0)"/>
     <use xlink:href="#DejaVuSans-64" transform="translate(172.949219 0)"/>
    </g>
   </g>
   <g id="line2d_1">
    <path d="M 124.744375 104.556191 
L 102.765899 124.246146 
L 97.88935 116.785472 
L 124.744375 104.556191 
" clip-path="url(#pf31131e75e)" style="fill: none; stroke: #696969; stroke-linecap: square"/>
   </g>
  </g>
 </g>
 <defs>
  <clipPath id="pf31131e75e">
   <rect x="7.2" y="7.2" width="210.672" height="210.672"/>
  </clipPath>
 </defs>
</svg>
