<?xml version="1.0" encoding="utf-8" standalone="no"?>
<!DOCTYPE svg PUBLIC "-//W3C//DTD SVG 1.1//EN"
  "http://www.w3.org/Graphics/SVG/1.1/DTD/svg11.dtd">
<svg xmlns:xlink="http://www.w3.org/1999/xlink" width="340.88pt" height="199.538049pt" viewBox="0 0 340.88 199.538049" xmlns="http://www.w3.org/2000/svg" version="1.1">
 <metadata>
  <rdf:RDF xmlns:dc="http://purl.org/dc/elements/1.1/" xmlns:cc="http://creativecommons.org/ns#" xmlns:rdf="http://www.w3.org/1999/02/22-rdf-syntax-ns#">
   <cc:Work>
    <dc:type rdf:resource="http://purl.org/dc/dcmitype/StillImage"/>
    <dc:date>2026-03-22T08:04:45.256568</dc:date>
    <dc:format>image/svg+xml</dc:format>
    <dc:creator>
     <cc:Agent>
      <dc:title>Matplotlib v3.10.1, https://matplotlib.org/</dc:title>
     </cc:Agent>
    </dc:creator>
   </cc:Work>
  </rdf:RDF>
 </metadata>
 <defs>
  <style type="text/css">*{stroke-linejoin: round; stroke-linecap: butt}</style>
 </defs>
 <g id="figure_1">
  <g id="patch_1">
   <path d="M -0 199.538049 
L 340.88 199.538049 
L 340.88 0 
L -0 0 
z
" style="fill: #ffffff"/>
  </g>
  <g id="axes_1">
   <g id="patch_2">
    <path d="M 187.242985 132.620743 
C 183.265966 126.508 177.82444 121.484306 171.414089 118.00728 
C 165.003738 114.530255 157.825303 112.70878 150.532683 112.70878 
" clip-path="url(#p823b2f044b)" style="fill: none; stroke: #696969; stroke-width: 1.2; stroke-linejoin: miter"/>
   </g>
   <g id="patch_3">
    <path d="M 223.26276 111.361257 
C 223.102477 111.103029 222.94082 110.845656 222.777796 110.589149 
C 222.614772 110.332643 222.450383 110.077006 222.284636 109.82225 
" clip-path="url(#p823b2f044b)" style="fill: none; stroke: #2e8b57; stroke-width: 1.2; stroke-linejoin: miter"/>
   </g>
   <g id="patch_4">
    <path d="M 205.604811 46.047277 
C 188.499952 37.519109 169.64566 33.079512 150.532683 33.079512 
C 131.419706 33.079512 112.565414 37.519109 95.460555 46.047277 
L 150.532683 156.504878 
z
" clip-path="url(#p823b2f044b)" style="fill: #e74c3c; opacity: 0.09; stroke: #e74c3c; stroke-linejoin: miter"/>
   </g>
   <g id="patch_5">
    <path d="M 60.949756 25.129465 
Q 60.949756 56.969886 60.949756 87.369604 
" style="fill: none; stroke: #5b9bd5; stroke-width: 1.8; stroke-linecap: round"/>
    <path d="M 61.349756 86.869604 
L 60.949756 87.369604 
L 60.549756 86.869604 
" style="fill: none; stroke: #5b9bd5; stroke-width: 1.8; stroke-linecap: round"/>
   </g>
   <g id="patch_6">
    <path d="M 120.671707 25.129465 
Q 120.671707 56.969886 120.671707 87.369604 
" style="fill: none; stroke: #5b9bd5; stroke-width: 1.8; stroke-linecap: round"/>
    <path d="M 121.071707 86.869604 
L 120.671707 87.369604 
L 120.271707 86.869604 
" style="fill: none; stroke: #5b9bd5; stroke-width: 1.8; stroke-linecap: round"/>
   </g>
   <g id="patch_7">
    <path d="M 180.393659 25.129465 
Q 180.393659 56.969886 180.393659 87.369604 
" style="fill: none; stroke: #5b9bd5; stroke-width: 1.8; stroke-linecap: round"/>
    <path d="M 180.793659 86.869604 
L 180.393659 87.369604 
L 179.993659 86.869604 
" style="fill: none; stroke: #5b9bd5; stroke-width: 1.8; stroke-linecap: round"/>
   </g>
   <g id="patch_8">
    <path d="M 240.11561 25.129465 
Q 240.11561 56.969886 240.11561 87.369604 
" style="fill: none; stroke: #5b9bd5; stroke-width: 1.8; stroke-linecap: round"/>
    <path d="M 240.51561 86.869604 
L 240.11561 87.369604 
L 239.71561 86.869604 
" style="fill: none; stroke: #5b9bd5; stroke-width: 1.8; stroke-linecap: round"/>
   </g>
   <g id="text_1">
    <!-- wind -->
    <g style="fill: #5b9bd5" transform="translate(35.070244 59.175793) scale(0.08 -0.08)">
     <defs>
      <path id="DejaVuSans-77" d="M 269 3500 
L 844 3500 
L 1563 769 
L 2278 3500 
L 2956 3500 
L 3675 769 
L 4391 3500 
L 4966 3500 
L 4050 0 
L 3372 0 
L 2619 2869 
L 1863 0 
L 1184 0 
L 269 3500 
z
" transform="scale(0.015625)"/>
      <path id="DejaVuSans-69" d="M 603 3500 
L 1178 3500 
L 1178 0 
L 603 0 
L 603 3500 
z
M 603 4863 
L 1178 4863 
L 1178 4134 
L 603 4134 
L 603 4863 
z
" transform="scale(0.015625)"/>
      <path id="DejaVuSans-6e" d="M 3513 2113 
L 3513 0 
L 2938 0 
L 2938 2094 
Q 2938 2591 2744 2837 
Q 2550 3084 2163 3084 
Q 1697 3084 1428 2787 
Q 1159 2491 1159 1978 
L 1159 0 
L 581 0 
L 581 3500 
L 1159 3500 
L 1159 2956 
Q 1366 3272 1645 3428 
Q 1925 3584 2291 3584 
Q 2894 3584 3203 3211 
Q 3513 2838 3513 2113 
z
" transform="scale(0.015625)"/>
      <path id="DejaVuSans-64" d="M 2906 2969 
L 2906 4863 
L 3481 4863 
L 3481 0 
L 2906 0 
L 2906 525 
Q 2725 213 2448 61 
Q 2172 -91 1784 -91 
Q 1150 -91 751 415 
Q 353 922 353 1747 
Q 353 2572 751 3078 
Q 1150 3584 1784 3584 
Q 2172 3584 2448 3432 
Q 2725 3281 2906 2969 
z
M 947 1747 
Q 947 1113 1208 752 
Q 1469 391 1925 391 
Q 2381 391 2643 752 
Q 2906 1113 2906 1747 
Q 2906 2381 2643 2742 
Q 2381 3103 1925 3103 
Q 1469 3103 1208 2742 
Q 947 2381 947 1747 
z
" transform="scale(0.015625)"/>
     </defs>
     <use xlink:href="#DejaVuSans-77"/>
     <use xlink:href="#DejaVuSans-69" transform="translate(81.787109 0)"/>
     <use xlink:href="#DejaVuSans-6e" transform="translate(109.570312 0)"/>
     <use xlink:href="#DejaVuSans-64" transform="translate(172.949219 0)"/>
    </g>
   </g>
   <g id="patch_9">
    <path d="M 152.20887 155.414332 
Q 193.918194 128.277777 234.390229 101.946216 
" style="fill: none; stroke: #696969; stroke-width: 1.8; stroke-linecap: round"/>
    <path d="M 233.572719 101.881588 
L 234.390229 101.946216 
L 234.118067 102.719797 
" style="fill: none; stroke: #696969; stroke-width: 1.8; stroke-linecap: round"/>
   </g>
   <g id="text_2">
    <!-- heading ($\theta=57°$) -->
    <g style="fill: #696969" transform="translate(195.370719 90.017866) scale(0.08 -0.08)">
     <defs>
      <path id="DejaVuSans-68" d="M 3513 2113 
L 3513 0 
L 2938 0 
L 2938 2094 
Q 2938 2591 2744 2837 
Q 2550 3084 2163 3084 
Q 1697 3084 1428 2787 
Q 1159 2491 1159 1978 
L 1159 0 
L 581 0 
L 581 4863 
L 1159 4863 
L 1159 2956 
Q 1366 3272 1645 3428 
Q 1925 3584 2291 3584 
Q 2894 3584 3203 3211 
Q 3513 2838 3513 2113 
z
" transform="scale(0.015625)"/>
      <path id="DejaVuSans-65" d="M 3597 1894 
L 3597 1613 
L 953 1613 
Q 991 1019 1311 708 
Q 1631 397 2203 397 
Q 2534 397 2845 478 
Q 3156 559 3463 722 
L 3463 178 
Q 3153 47 2828 -22 
Q 2503 -91 2169 -91 
Q 1331 -91 842 396 
Q 353 884 353 1716 
Q 353 2575 817 3079 
Q 1281 3584 2069 3584 
Q 2775 3584 3186 3129 
Q 3597 2675 3597 1894 
z
M 3022 2063 
Q 3016 2534 2758 2815 
Q 2500 3097 2075 3097 
Q 1594 3097 1305 2825 
Q 1016 2553 972 2059 
L 3022 2063 
z
" transform="scale(0.015625)"/>
      <path id="DejaVuSans-61" d="M 2194 1759 
Q 1497 1759 1228 1600 
Q 959 1441 959 1056 
Q 959 750 1161 570 
Q 1363 391 1709 391 
Q 2188 391 2477 730 
Q 2766 1069 2766 1631 
L 2766 1759 
L 2194 1759 
z
M 3341 1997 
L 3341 0 
L 2766 0 
L 2766 531 
Q 2569 213 2275 61 
Q 1981 -91 1556 -91 
Q 1019 -91 701 211 
Q 384 513 384 1019 
Q 384 1609 779 1909 
Q 1175 2209 1959 2209 
L 2766 2209 
L 2766 2266 
Q 2766 2663 2505 2880 
Q 2244 3097 1772 3097 
Q 1472 3097 1187 3025 
Q 903 2953 641 2809 
L 641 3341 
Q 956 3463 1253 3523 
Q 1550 3584 1831 3584 
Q 2591 3584 2966 3190 
Q 3341 2797 3341 1997 
z
" transform="scale(0.015625)"/>
      <path id="DejaVuSans-67" d="M 2906 1791 
Q 2906 2416 2648 2759 
Q 2391 3103 1925 3103 
Q 1463 3103 1205 2759 
Q 947 2416 947 1791 
Q 947 1169 1205 825 
Q 1463 481 1925 481 
Q 2391 481 2648 825 
Q 2906 1169 2906 1791 
z
M 3481 434 
Q 3481 -459 3084 -895 
Q 2688 -1331 1869 -1331 
Q 1566 -1331 1297 -1286 
Q 1028 -1241 775 -1147 
L 775 -588 
Q 1028 -725 1275 -790 
Q 1522 -856 1778 -856 
Q 2344 -856 2625 -561 
Q 2906 -266 2906 331 
L 2906 616 
Q 2728 306 2450 153 
Q 2172 0 1784 0 
Q 1141 0 747 490 
Q 353 981 353 1791 
Q 353 2603 747 3093 
Q 1141 3584 1784 3584 
Q 2172 3584 2450 3431 
Q 2728 3278 2906 2969 
L 2906 3500 
L 3481 3500 
L 3481 434 
z
" transform="scale(0.015625)"/>
      <path id="DejaVuSans-20" transform="scale(0.015625)"/>
      <path id="DejaVuSans-28" d="M 1984 4856 
Q 1566 4138 1362 3434 
Q 1159 2731 1159 2009 
Q 1159 1288 1364 580 
Q 1569 -128 1984 -844 
L 1484 -844 
Q 1016 -109 783 600 
Q 550 1309 550 2009 
Q 550 2706 781 3412 
Q 1013 4119 1484 4856 
L 1984 4856 
z
" transform="scale(0.015625)"/>
      <path id="DejaVuSans-Oblique-3b8" d="M 2913 2219 
L 925 2219 
Q 791 1284 928 888 
Q 1100 400 1566 400 
Q 2034 400 2391 891 
Q 2703 1322 2913 2219 
z
M 3009 2750 
Q 3094 3638 2984 3950 
Q 2813 4444 2353 4444 
Q 1875 4444 1525 3956 
Q 1250 3563 1034 2750 
L 3009 2750 
z
M 2444 4913 
Q 3194 4913 3494 4250 
Q 3794 3591 3566 2422 
Q 3341 1256 2781 594 
Q 2225 -72 1475 -72 
Q 722 -72 425 594 
Q 128 1256 353 2422 
Q 581 3591 1134 4250 
Q 1691 4913 2444 4913 
z
" transform="scale(0.015625)"/>
      <path id="DejaVuSans-3d" d="M 678 2906 
L 4684 2906 
L 4684 2381 
L 678 2381 
L 678 2906 
z
M 678 1631 
L 4684 1631 
L 4684 1100 
L 678 1100 
L 678 1631 
z
" transform="scale(0.015625)"/>
      <path id="DejaVuSans-35" d="M 691 4666 
L 3169 4666 
L 3169 4134 
L 1269 4134 
L 1269 2991 
Q 1406 3038 1543 3061 
Q 1681 3084 1819 3084 
Q 2600 3084 3056 2656 
Q 3513 2228 3513 1497 
Q 3513 744 3044 326 
Q 2575 -91 1722 -91 
Q 1428 -91 1123 -41 
Q 819 9 494 109 
L 494 744 
Q 775 591 1075 516 
Q 1375 441 1709 441 
Q 2250 441 2565 725 
Q 2881 1009 2881 1497 
Q 2881 1984 2565 2268 
Q 2250 2553 1709 2553 
Q 1456 2553 1204 2497 
Q 953 2441 691 2322 
L 691 4666 
z
" transform="scale(0.015625)"/>
      <path id="DejaVuSans-37" d="M 525 4666 
L 3525 4666 
L 3525 4397 
L 1831 0 
L 1172 0 
L 2766 4134 
L 525 4134 
L 525 4666 
z
" transform="scale(0.015625)"/>
      <path id="DejaVuSans-b0" d="M 1600 4347 
Q 1350 4347 1178 4173 
Q 1006 4000 1006 3750 
Q 1006 3503 1178 3333 
Q 1350 3163 1600 3163 
Q 1850 3163 2022 3333 
Q 2194 3503 2194 3750 
Q 2194 3997 2020 4172 
Q 1847 4347 1600 4347 
z
M 1600 4750 
Q 1800 4750 1984 4673 
Q 2169 4597 2303 4453 
Q 2447 4313 2519 4134 
Q 2591 3956 2591 3750 
Q 2591 3338 2302 3052 
Q 2013 2766 1594 2766 
Q 1172 2766 890 3047 
Q 609 3328 609 3750 
Q 609 4169 896 4459 
Q 1184 4750 1600 4750 
z
" transform="scale(0.015625)"/>
      <path id="DejaVuSans-29" d="M 513 4856 
L 1013 4856 
Q 1481 4119 1714 3412 
Q 1947 2706 1947 2009 
Q 1947 1309 1714 600 
Q 1481 -109 1013 -844 
L 513 -844 
Q 928 -128 1133 580 
Q 1338 1288 1338 2009 
Q 1338 2731 1133 3434 
Q 928 4138 513 4856 
z
" transform="scale(0.015625)"/>
     </defs>
     <use xlink:href="#DejaVuSans-68" transform="translate(0 0.234375)"/>
     <use xlink:href="#DejaVuSans-65" transform="translate(63.378906 0.234375)"/>
     <use xlink:href="#DejaVuSans-61" transform="translate(124.902344 0.234375)"/>
     <use xlink:href="#DejaVuSans-64" transform="translate(186.181641 0.234375)"/>
     <use xlink:href="#DejaVuSans-69" transform="translate(249.658203 0.234375)"/>
     <use xlink:href="#DejaVuSans-6e" transform="translate(277.441406 0.234375)"/>
     <use xlink:href="#DejaVuSans-67" transform="translate(340.820312 0.234375)"/>
     <use xlink:href="#DejaVuSans-20" transform="translate(404.296875 0.234375)"/>
     <use xlink:href="#DejaVuSans-28" transform="translate(436.083984 0.234375)"/>
     <use xlink:href="#DejaVuSans-Oblique-3b8" transform="translate(475.097656 0.234375)"/>
     <use xlink:href="#DejaVuSans-3d" transform="translate(555.761719 0.234375)"/>
     <use xlink:href="#DejaVuSans-35" transform="translate(659.033203 0.234375)"/>
     <use xlink:href="#DejaVuSans-37" transform="translate(715.40625 0.234375)"/>
     <use xlink:href="#DejaVuSans-b0" transform="translate(779.029297 0.234375)"/>
     <use xlink:href="#DejaVuSans-29" transform="translate(829.029297 0.234375)"/>
    </g>
   </g>
   <g id="patch_10">
    <path d="M 152.231719 155.450285 
Q 194.509625 129.208352 235.533376 103.744875 
" style="fill: none; stroke: #2e8b57; stroke-width: 1.8; stroke-linecap: round"/>
    <path d="M 234.717427 103.662848 
L 235.533376 103.744875 
L 235.244797 104.512484 
" style="fill: none; stroke: #2e8b57; stroke-width: 1.8; stroke-linecap: round"/>
   </g>
   <g id="text_3">
    <!-- track ($\theta+\alpha=58°$) -->
    <g style="fill: #2e8b57" transform="translate(237.010592 119.683346) scale(0.08 -0.08)">
     <defs>
      <path id="DejaVuSans-74" d="M 1172 4494 
L 1172 3500 
L 2356 3500 
L 2356 3053 
L 1172 3053 
L 1172 1153 
Q 1172 725 1289 603 
Q 1406 481 1766 481 
L 2356 481 
L 2356 0 
L 1766 0 
Q 1100 0 847 248 
Q 594 497 594 1153 
L 594 3053 
L 172 3053 
L 172 3500 
L 594 3500 
L 594 4494 
L 1172 4494 
z
" transform="scale(0.015625)"/>
      <path id="DejaVuSans-72" d="M 2631 2963 
Q 2534 3019 2420 3045 
Q 2306 3072 2169 3072 
Q 1681 3072 1420 2755 
Q 1159 2438 1159 1844 
L 1159 0 
L 581 0 
L 581 3500 
L 1159 3500 
L 1159 2956 
Q 1341 3275 1631 3429 
Q 1922 3584 2338 3584 
Q 2397 3584 2469 3576 
Q 2541 3569 2628 3553 
L 2631 2963 
z
" transform="scale(0.015625)"/>
      <path id="DejaVuSans-63" d="M 3122 3366 
L 3122 2828 
Q 2878 2963 2633 3030 
Q 2388 3097 2138 3097 
Q 1578 3097 1268 2742 
Q 959 2388 959 1747 
Q 959 1106 1268 751 
Q 1578 397 2138 397 
Q 2388 397 2633 464 
Q 2878 531 3122 666 
L 3122 134 
Q 2881 22 2623 -34 
Q 2366 -91 2075 -91 
Q 1284 -91 818 406 
Q 353 903 353 1747 
Q 353 2603 823 3093 
Q 1294 3584 2113 3584 
Q 2378 3584 2631 3529 
Q 2884 3475 3122 3366 
z
" transform="scale(0.015625)"/>
      <path id="DejaVuSans-6b" d="M 581 4863 
L 1159 4863 
L 1159 1991 
L 2875 3500 
L 3609 3500 
L 1753 1863 
L 3688 0 
L 2938 0 
L 1159 1709 
L 1159 0 
L 581 0 
L 581 4863 
z
" transform="scale(0.015625)"/>
      <path id="DejaVuSans-2b" d="M 2944 4013 
L 2944 2272 
L 4684 2272 
L 4684 1741 
L 2944 1741 
L 2944 0 
L 2419 0 
L 2419 1741 
L 678 1741 
L 678 2272 
L 2419 2272 
L 2419 4013 
L 2944 4013 
z
" transform="scale(0.015625)"/>
      <path id="DejaVuSans-Oblique-3b1" d="M 2619 1628 
L 2622 2350 
Q 2625 3088 2069 3091 
Q 1653 3094 1394 2747 
Q 1069 2319 959 1747 
Q 825 1059 994 731 
Q 1169 397 1547 397 
Q 1966 397 2319 1063 
L 2619 1628 
z
M 2166 3578 
Q 3141 3594 3128 2584 
Q 3128 2584 3616 3500 
L 4128 3500 
L 3119 1603 
L 3109 919 
Q 3109 766 3194 638 
Q 3291 488 3391 488 
L 3669 488 
L 3575 0 
L 3228 0 
Q 2934 0 2722 263 
Q 2622 394 2619 669 
Q 2416 334 2066 50 
Q 1900 -81 1453 -78 
Q 722 -72 456 397 
Q 184 884 353 1747 
Q 534 2675 1009 3097 
Q 1544 3569 2166 3578 
z
" transform="scale(0.015625)"/>
      <path id="DejaVuSans-38" d="M 2034 2216 
Q 1584 2216 1326 1975 
Q 1069 1734 1069 1313 
Q 1069 891 1326 650 
Q 1584 409 2034 409 
Q 2484 409 2743 651 
Q 3003 894 3003 1313 
Q 3003 1734 2745 1975 
Q 2488 2216 2034 2216 
z
M 1403 2484 
Q 997 2584 770 2862 
Q 544 3141 544 3541 
Q 544 4100 942 4425 
Q 1341 4750 2034 4750 
Q 2731 4750 3128 4425 
Q 3525 4100 3525 3541 
Q 3525 3141 3298 2862 
Q 3072 2584 2669 2484 
Q 3125 2378 3379 2068 
Q 3634 1759 3634 1313 
Q 3634 634 3220 271 
Q 2806 -91 2034 -91 
Q 1263 -91 848 271 
Q 434 634 434 1313 
Q 434 1759 690 2068 
Q 947 2378 1403 2484 
z
M 1172 3481 
Q 1172 3119 1398 2916 
Q 1625 2713 2034 2713 
Q 2441 2713 2670 2916 
Q 2900 3119 2900 3481 
Q 2900 3844 2670 4047 
Q 2441 4250 2034 4250 
Q 1625 4250 1398 4047 
Q 1172 3844 1172 3481 
z
" transform="scale(0.015625)"/>
     </defs>
     <use xlink:href="#DejaVuSans-74" transform="translate(0 0.234375)"/>
     <use xlink:href="#DejaVuSans-72" transform="translate(39.208984 0.234375)"/>
     <use xlink:href="#DejaVuSans-61" transform="translate(80.322266 0.234375)"/>
     <use xlink:href="#DejaVuSans-63" transform="translate(141.601562 0.234375)"/>
     <use xlink:href="#DejaVuSans-6b" transform="translate(196.582031 0.234375)"/>
     <use xlink:href="#DejaVuSans-20" transform="translate(254.492188 0.234375)"/>
     <use xlink:href="#DejaVuSans-28" transform="translate(286.279297 0.234375)"/>
     <use xlink:href="#DejaVuSans-Oblique-3b8" transform="translate(325.292969 0.234375)"/>
     <use xlink:href="#DejaVuSans-2b" transform="translate(405.957031 0.234375)"/>
     <use xlink:href="#DejaVuSans-Oblique-3b1" transform="translate(509.228516 0.234375)"/>
     <use xlink:href="#DejaVuSans-3d" transform="translate(594.628906 0.234375)"/>
     <use xlink:href="#DejaVuSans-35" transform="translate(697.900391 0.234375)"/>
     <use xlink:href="#DejaVuSans-38" transform="translate(761.523438 0.234375)"/>
     <use xlink:href="#DejaVuSans-b0" transform="translate(825.146484 0.234375)"/>
     <use xlink:href="#DejaVuSans-29" transform="translate(875.146484 0.234375)"/>
    </g>
   </g>
   <g id="patch_11">
    <path d="M 150.532683 154.502317 
Q 150.532683 129.207314 150.532683 105.060397 
" style="fill: none; stroke-dasharray: 5.18,2.24; stroke-dashoffset: 0; stroke: #696969; stroke-width: 1.4; stroke-linecap: round"/>
    <path d="M 150.032683 105.710397 
L 150.532683 105.060397 
L 151.032683 105.710397 
" style="fill: none; stroke-dasharray: 5.18,2.24; stroke-dashoffset: 0; stroke: #696969; stroke-width: 1.4; stroke-linecap: round"/>
   </g>
   <g id="text_4">
    <!-- $u = v\cos(\theta+\alpha)$ -->
    <g style="fill: #696969" transform="translate(178.402927 148.747798) scale(0.075 -0.075)">
     <defs>
      <path id="DejaVuSans-Oblique-75" d="M 428 1388 
L 838 3500 
L 1416 3500 
L 1006 1409 
Q 975 1256 961 1147 
Q 947 1038 947 966 
Q 947 700 1109 554 
Q 1272 409 1569 409 
Q 2031 409 2368 721 
Q 2706 1034 2809 1563 
L 3194 3500 
L 3769 3500 
L 3091 0 
L 2516 0 
L 2631 550 
Q 2388 244 2052 76 
Q 1716 -91 1338 -91 
Q 878 -91 622 161 
Q 366 413 366 863 
Q 366 956 381 1097 
Q 397 1238 428 1388 
z
" transform="scale(0.015625)"/>
      <path id="DejaVuSans-Oblique-76" d="M 459 3500 
L 1069 3500 
L 1581 525 
L 3256 3500 
L 3866 3500 
L 1875 0 
L 1100 0 
L 459 3500 
z
" transform="scale(0.015625)"/>
      <path id="DejaVuSans-6f" d="M 1959 3097 
Q 1497 3097 1228 2736 
Q 959 2375 959 1747 
Q 959 1119 1226 758 
Q 1494 397 1959 397 
Q 2419 397 2687 759 
Q 2956 1122 2956 1747 
Q 2956 2369 2687 2733 
Q 2419 3097 1959 3097 
z
M 1959 3584 
Q 2709 3584 3137 3096 
Q 3566 2609 3566 1747 
Q 3566 888 3137 398 
Q 2709 -91 1959 -91 
Q 1206 -91 779 398 
Q 353 888 353 1747 
Q 353 2609 779 3096 
Q 1206 3584 1959 3584 
z
" transform="scale(0.015625)"/>
      <path id="DejaVuSans-73" d="M 2834 3397 
L 2834 2853 
Q 2591 2978 2328 3040 
Q 2066 3103 1784 3103 
Q 1356 3103 1142 2972 
Q 928 2841 928 2578 
Q 928 2378 1081 2264 
Q 1234 2150 1697 2047 
L 1894 2003 
Q 2506 1872 2764 1633 
Q 3022 1394 3022 966 
Q 3022 478 2636 193 
Q 2250 -91 1575 -91 
Q 1294 -91 989 -36 
Q 684 19 347 128 
L 347 722 
Q 666 556 975 473 
Q 1284 391 1588 391 
Q 1994 391 2212 530 
Q 2431 669 2431 922 
Q 2431 1156 2273 1281 
Q 2116 1406 1581 1522 
L 1381 1569 
Q 847 1681 609 1914 
Q 372 2147 372 2553 
Q 372 3047 722 3315 
Q 1072 3584 1716 3584 
Q 2034 3584 2315 3537 
Q 2597 3491 2834 3397 
z
" transform="scale(0.015625)"/>
     </defs>
     <use xlink:href="#DejaVuSans-Oblique-75" transform="translate(0 0.234375)"/>
     <use xlink:href="#DejaVuSans-3d" transform="translate(82.861328 0.234375)"/>
     <use xlink:href="#DejaVuSans-Oblique-76" transform="translate(186.132812 0.234375)"/>
     <use xlink:href="#DejaVuSans-63" transform="translate(245.3125 0.234375)"/>
     <use xlink:href="#DejaVuSans-6f" transform="translate(300.292969 0.234375)"/>
     <use xlink:href="#DejaVuSans-73" transform="translate(361.474609 0.234375)"/>
     <use xlink:href="#DejaVuSans-28" transform="translate(413.574219 0.234375)"/>
     <use xlink:href="#DejaVuSans-Oblique-3b8" transform="translate(452.587891 0.234375)"/>
     <use xlink:href="#DejaVuSans-2b" transform="translate(533.251953 0.234375)"/>
     <use xlink:href="#DejaVuSans-Oblique-3b1" transform="translate(636.523438 0.234375)"/>
     <use xlink:href="#DejaVuSans-29" transform="translate(702.441406 0.234375)"/>
    </g>
   </g>
   <g id="text_5">
    <!-- $\theta$ -->
    <g style="fill: #696969" transform="translate(171.02223 116.36502) scale(0.08 -0.08)">
     <use xlink:href="#DejaVuSans-Oblique-3b8" transform="translate(0 0.234375)"/>
    </g>
   </g>
   <g id="text_6">
    <g id="patch_12">
     <path d="M 227.362307 111.068826 
L 232.642307 111.068826 
Q 233.842307 111.068826 233.842307 109.868826 
L 233.842307 102.126326 
Q 233.842307 100.926326 232.642307 100.926326 
L 227.362307 100.926326 
Q 226.162307 100.926326 226.162307 102.126326 
L 226.162307 109.868826 
Q 226.162307 111.068826 227.362307 111.068826 
z
" style="fill: #ffffff; opacity: 0.8"/>
    </g>
    <!-- $\alpha$ -->
    <g style="fill: #2e8b57" transform="translate(227.362307 108.205076) scale(0.08 -0.08)">
     <use xlink:href="#DejaVuSans-Oblique-3b1" transform="translate(0 0.84375)"/>
    </g>
   </g>
   <g id="patch_13">
    <path d="M 163.047559 148.362559 
L 140.460503 168.401659 
L 135.575112 160.892734 
z
" clip-path="url(#p823b2f044b)" style="fill: #696969; opacity: 0.7; stroke: #696969; stroke-linejoin: miter"/>
   </g>
   <g id="text_7">
    <!-- no-go -->
    <g style="fill: #e74c3c; opacity: 0.9" transform="translate(140.48112 45.558853) scale(0.07 -0.07)">
     <defs>
      <path id="DejaVuSans-2d" d="M 313 2009 
L 1997 2009 
L 1997 1497 
L 313 1497 
L 313 2009 
z
" transform="scale(0.015625)"/>
     </defs>
     <use xlink:href="#DejaVuSans-6e"/>
     <use xlink:href="#DejaVuSans-6f" transform="translate(63.378906 0)"/>
     <use xlink:href="#DejaVuSans-2d" transform="translate(126.435547 0)"/>
     <use xlink:href="#DejaVuSans-67" transform="translate(162.519531 0)"/>
     <use xlink:href="#DejaVuSans-6f" transform="translate(225.996094 0)"/>
    </g>
   </g>
   <g id="line2d_1">
    <path d="M 163.047559 148.362559 
L 140.460503 168.401659 
L 135.575112 160.892734 
L 163.047559 148.362559 
" clip-path="url(#p823b2f044b)" style="fill: none; stroke: #696969; stroke-linecap: square"/>
   </g>
  </g>
 </g>
 <defs>
  <clipPath id="p823b2f044b">
   <rect x="7.2" y="7.2" width="326.48" height="185.138049"/>
  </clipPath>
 </defs>
</svg>
